<svg xmlns="http://www.w3.org/2000/svg" xmlns:xlink="http://www.w3.org/1999/xlink" version="1.1" width="1417.32" height="1417.32" enable-background="new 0 0 1417.32 1417.32" xml:space="preserve"><rect id="backgroundrect" width="100%" height="100%" x="0" y="0" fill="none" stroke="none"/>



<g class="currentLayer" style=""><title>Layer 1</title><path fill-rule="evenodd" clip-rule="evenodd" d="M601.079,662.825c0-9.17,0.03-17.813-0.007-26.454  c-0.061-14.668,0.012-29.304,4.28-43.563c8.981-30.004,27.146-52.682,55.039-66.794c33.005-16.699,66.671-16.662,99.39,0.517  c32.102,16.854,51.643,43.862,56.704,79.856c2.284,16.245,1.224,32.961,1.663,49.465c0.057,2.125,0.008,4.252,0.008,7.063  c4.391,0,8.597-0.051,12.8,0.01c11.024,0.16,19.792,4.498,24.531,14.738c1.783,3.854,2.724,8.453,2.735,12.717  c0.17,62.652,0.146,125.305,0.098,187.958c-0.014,16.884-10.932,27.604-27.936,27.608c-80.382,0.018-160.763,0.015-241.146,0.003  c-17.457-0.003-28.121-10.613-28.145-28.183c-0.057-42.656-0.019-85.314-0.019-127.971c0-19.596,0.013-39.192-0.003-58.788  c-0.009-11.317,4.13-20.426,14.708-25.345c3.848-1.789,8.422-2.259,12.73-2.744C592.442,662.476,596.463,662.825,601.079,662.825z   M825.379,695.793c-77.273,0-154.254,0-231.42,0c0,59.179,0,118.143,0,177.235c77.244,0,154.229,0,231.42,0  C825.379,813.946,825.379,755.076,825.379,695.793z M785.263,662.553c0.104-0.695,0.245-1.199,0.245-1.703  c0-13.191,0.229-26.388-0.07-39.572c-1.064-46.845-42.463-80.487-87.643-73.824c-32.489,4.792-60.626,33.221-63.274,66.418  c-1.267,15.892-0.54,31.943-0.696,47.922c-0.002,0.217,0.254,0.438,0.453,0.759C684.52,662.553,734.817,662.553,785.263,662.553z" id="svg_2" class="" fill="#ffffff" fill-opacity="1"/><path fill-rule="evenodd" clip-rule="evenodd" d="M725.749,811.967c0,7.317,0.26,14.647-0.07,21.95  c-0.365,8.056-6.379,13.891-14.59,14.836c-7.49,0.862-14.853-4.108-17.032-11.561c-0.332-1.134-0.563-2.345-0.566-3.521  c-0.036-14.77-0.169-29.541,0.048-44.307c0.097-6.609,3.798-11.292,9.809-13.804c6.179-2.582,12.031-1.537,17.117,2.858  c3.371,2.914,5.252,6.695,5.3,11.193c0.079,7.45,0.021,14.902,0.021,22.354C725.773,811.967,725.761,811.967,725.749,811.967z" id="svg_3" class="selected" fill="#ffffff" fill-opacity="1"/></g></svg>